<svg xmlns="http://www.w3.org/2000/svg" xmlns:xlink="http://www.w3.org/1999/xlink" width="510" height="300" viewBox="0 0 510 300">
    <defs>
        <path id="qi5tclodrc" d="M0 0.344L122.391 0.344 122.391 59 0 59"/>
        <path id="nomauh5g9e" d="M0 0.344L122.391 0.344 122.391 59 0 59"/>
        <path id="zt9ha6hkrg" d="M0 0.486L135.298 0.486 135.298 65.328 0 65.328"/>
        <path id="yj9jd7wgpi" d="M0 0.486L135.298 0.486 135.298 65.328 0 65.328"/>
        <path id="fqbvuy298k" d="M0 0.344L122.391 0.344 122.391 59 0 59"/>
        <path id="ldvsexe9xm" d="M0 0.344L122.391 0.344 122.391 59 0 59"/>
        <path id="cms6x4xtjo" d="M0 0.907L82.092 0.907 82.092 40.5 0 40.5"/>
        <path id="lk5jwdkcrq" d="M0 0.907L82.092 0.907 82.092 40.5 0 40.5"/>
        <path id="viuaegm16s" d="M0 0.344L122.391 0.344 122.391 59 0 59"/>
        <path id="o9arxvuufu" d="M0 0.344L122.391 0.344 122.391 59 0 59"/>
        <linearGradient id="kdbelrcm0a" x1="100%" x2="0%" y1="73.704%" y2="73.704%">
            <stop offset="0%" stop-color="#E8E8E8" stop-opacity=".315"/>
            <stop offset="100%" stop-color="#CCC"/>
        </linearGradient>
        <linearGradient id="1saxa57v6b" x1="100%" x2="0%" y1="73.704%" y2="73.704%">
            <stop offset="0%" stop-color="#E8E8E8" stop-opacity=".315"/>
            <stop offset="100%" stop-color="#CCC"/>
        </linearGradient>
    </defs>
    <g fill="none" fill-rule="evenodd">
        <g>
            <g>
                <g fill-rule="nonzero">
                    <path fill="url(#kdbelrcm0a)" d="M8.554 48.348C1.11 62.94 1.61 71.163 8.24 75.498c5.196 3.398 14.081 3.418 26.023.943 4.007-.83 8.234-1.918 12.838-3.261 3.8-1.109 13.533-4.205 14.377-4.448 2.342-.675 4.47-.717 6.953-.245.79.15 1.62.35 2.64.632.611.168 2.882.824 2.834.81 4.419 1.26 7.587 1.827 11.69 1.827v-2.162c-3.906 0-6.92-.54-11.19-1.757.059.017-2.225-.644-2.85-.815-1.063-.293-1.938-.505-2.785-.666-2.749-.522-5.162-.474-7.798.285-.875.252-10.612 3.35-14.382 4.45-4.56 1.33-8.743 2.405-12.697 3.225-11.483 2.38-19.995 2.36-24.635-.673-5.459-3.57-5.529-11.26 1.463-24.965l-2.166-.499v.169z" transform="translate(-465 -220) translate(465 220) rotate(7 33.827 1731.148) rotate(153 44.357 63.183)"/>
                    <path fill="#5C8FB4" d="M190.425 42.436s12.364-.285 14.347 6.74c1.982 7.028-11.971 31.024-11.971 31.024L184.8 48.26l5.625-5.824z" transform="translate(-465 -220) translate(465 220) rotate(7 33.827 1731.148)"/>
                    <path fill="#BEDCF1" d="M143.785 40.86s-16.87-4.499-24.288-4.499c-7.417 0-22.926 3.82-29.443 5.844 0 0-5.394 9.665 2.023 15.059 0 0 21.801-2.024 27.645 0 5.844 2.023 14.366 4.711 14.366 4.711l14.296-16.231-4.599-4.884z" transform="translate(-465 -220) translate(465 220) rotate(7 33.827 1731.148)"/>
                    <path fill="#BEDCF1" d="M90.054 42.205s-10.788-2.922-13.935-1.573c-3.147 1.348 5.394 3.147 5.394 3.147S70.5 44.452 70.5 46.476c0 2.022 11.238 1.123 11.238 1.123S70.5 47.824 70.5 49.846c0 2.024 10.788 1.349 10.788 1.349s-8.541 2.39-8.765 4.228c-.225 1.84 10.113 0 10.113 0s-.898 2.74-2.36 5.438c-1.46 2.697 4.834 2.247 11.801-3.597l-2.023-15.059z" transform="translate(-465 -220) translate(465 220) rotate(7 33.827 1731.148)"/>
                    <path fill="#5C8FB4" d="M92.078 59.212c-.593 0-1.178-.268-1.56-.778-6.509-8.68-2.369-16.794-2.189-17.136.5-.953 1.676-1.322 2.633-.818.95.5 1.315 1.671.822 2.622-.14.275-3.13 6.348 1.852 12.992.645.86.471 2.083-.39 2.728-.35.263-.76.39-1.168.39zm23.213-22.568s-1.06 13.17 0 19.891c0 0 .91 1.928 4.43.73 0-.001 5.5-10.118 4.736-20.492 0 0-4.083-2.32-9.166-.13zm19.384 25.606l-1.176-.55c5.388-11.498 11.523-15.84 11.783-16.02l.74 1.068c-.06.042-6.122 4.354-11.347 15.502z" transform="translate(-465 -220) translate(465 220) rotate(7 33.827 1731.148)"/>
                    <path fill="#BEDCF1" d="M146.696 45.349s-22.254 16.635-15.736 47.875c0 0-19.104 9.441-24.05 14.61-4.944 5.17-10.563 26.522-10.563 26.522s-10.563 4.045-11.463 10.788c-.898 6.742 18.656 6.967 29.219 0 0 0 6.519-17.082 7.867-22.701l17.306-3.82-.243 1.913c-.57 3.213-.993 6.684-1.106 10.223 0 0 0 12.586 7.193 24.274 0 0-4.713 16.857 1.576 23.825 6.29 6.967 19.551-9.44 17.978-26.522 0 0-5.62-12.811-5.17-18.43l12.137-25.847s6.423-4.72 6.293-19.104l1.348-35.99-32.586-7.616z" transform="translate(-465 -220) translate(465 220) rotate(7 33.827 1731.148)"/>
                    <path fill="#5C8FB4" d="M152.923 159.026c-.732 0-1.416-.045-2.045-.119-4.026-.468-6.7-2.161-6.813-2.233-.904-.584-1.167-1.788-.585-2.694.582-.903 1.784-1.167 2.687-.59.366.228 8.413 5.117 17.23-2.527.815-.705 2.045-.614 2.75.196.705.813.616 2.045-.197 2.75-4.78 4.143-9.46 5.217-13.027 5.217zm6.916-22.857c-6.511 5.581-20.737 5.57-21.313 2.373-1.025-2.52-.749-5.724-.749-5.724 10.17-5.928 21.893-.117 21.893-.117s.81 1.263.17 3.468zM140.186 108.745c-.159-.122-.302-.27-.422-.443-.573-.829-.416-1.947.335-2.589-3.178-8.593-9.405-10.534-9.682-10.616-1.026-.304-1.621-1.383-1.323-2.412.297-1.03 1.36-1.635 2.396-1.335.347.098 8.013 2.37 11.997 12.313 14.791-7.5 29.147 2.708 29.3 2.818.87.633 1.063 1.853.43 2.723-.38.526-.975.804-1.578.804-.396 0-.796-.12-1.141-.37-.575-.415-13.74-9.694-26.936-1.552-.069.05-.141.095-.217.136-.29.182-.58.374-.869.574-.318.22-.678.333-1.037.346l-1.522 9.582-1.282-.203 1.551-9.776zM114.104 147.093c-.155 0-.312-.018-.468-.057-18.162-4.48-19.178-11.733-19.233-12.546-.075-1.074.736-2.004 1.81-2.08 1.03-.097 1.956.698 2.07 1.73.056.254 1.371 5.432 16.287 9.111 1.044.258 1.683 1.314 1.425 2.36-.219.888-1.015 1.482-1.891 1.482zm-3.096-42.555s10.063 10.488 10.962 17.906c.898 7.417-18.49-8.954-18.49-8.954s-.062-6.628 7.528-8.952z" transform="translate(-465 -220) translate(465 220) rotate(7 33.827 1731.148)"/>
                    <path fill="#BEDCF1" d="M196.859 28.6c0 15.705-12.9 28.435-28.814 28.435-15.913 0-28.813-12.73-28.813-28.435 0-15.705 12.9-28.436 28.813-28.436 15.914 0 28.814 12.73 28.814 28.436" transform="translate(-465 -220) translate(465 220) rotate(7 33.827 1731.148)"/>
                    <path fill="#5C8FB4" d="M172.105 54.821c-1.949.444-3.977.68-6.062.68-14.808 0-26.812-11.847-26.812-26.46 0-6.698 2.523-12.815 6.68-17.475l.224-.228c.689-.698 1.853-.55 2.331.304 2.004 3.593 9.04 10.787 32.774 7.865 1.425-.176 2.709.865 2.835 2.295.579 6.53.847 23.589-10.652 32.676l-1.318.343z" transform="translate(-465 -220) translate(465 220) rotate(7 33.827 1731.148)"/>
                    <path fill="#BEDCF1" d="M192.618 118.173s-2.152 15.443-4.201 18.186c-2.05 2.742-1.794-5.982-1.794-5.982s-3.239 10.547-5.205 10.073c-1.967-.476 1.543-11.189 1.543-11.189s-2.854 10.872-4.82 10.397c-1.967-.474 1.22-10.803 1.22-10.803s-4.326 7.741-6.168 7.528c-1.842-.213 2.373-9.83 2.373-9.83s-2.872.23-5.838 1.016c-2.964.788-1.05-5.224 6.266-10.626l16.624 1.23z" transform="translate(-465 -220) translate(465 220) rotate(7 33.827 1731.148)"/>
                    <path fill="#BEDCF1" d="M185.576 52.993s-14.385-1.123-17.53 10.563c0 0 2.021 11.238 9.889 25.398 0 0 1.348 4.046.448 11.013-.898 6.968-2.922 16.632-2.922 16.632s5.77 4.946 17.157 1.574c0 0 7.568-15.957 6.218-30.792-1.349-14.834-13.26-34.388-13.26-34.388" transform="translate(-465 -220) translate(465 220) rotate(7 33.827 1731.148)"/>
                    <path fill="#5C8FB4" d="M184.715 122.38c-4.836 0-8.483-2.297-10.157-4.117-.729-.793-.676-2.025.116-2.755.79-.725 2.016-.677 2.746.108.236.246 5.597 5.75 14.237.86.939-.527 2.127-.202 2.658.737.53.936.2 2.126-.737 2.657-3.223 1.824-6.222 2.51-8.863 2.51zm-6.054-28.418s18.153-.287 20.175-6.581c0 0 .987 3.084-.243 9.887 0 0-10.065 3.508-19.932-.567 0 0-.77-.204 0-2.74zm-10.266-26.21c-.147 0-.297-.012-.446-.038-1.414-.246-2.362-1.59-2.118-3.004 2.271-13.13 14.129-15.095 20.09-14.292 1.423.19 2.42 1.498 2.23 2.92-.19 1.42-1.497 2.42-2.913 2.232-1.257-.159-12.339-1.233-14.286 10.026-.219 1.263-1.317 2.156-2.557 2.156z" transform="translate(-465 -220) translate(465 220) rotate(7 33.827 1731.148)"/>
                    <path fill="#5C8FB4" d="M183.186 72.776c-1.853-.834-3.643-1.821-3.643-4.044 0-1.019.309-2.439 1.79-3.427h-4.846V79.32h3.89c3.796 0 5.865-1.173 5.865-3.457 0-1.235-.896-2.13-3.056-3.087zm4.013 1.852c.123.278.185.587.216.926h3.087v-.926h-3.303zm-1.544-1.852c.37.278.741.586 1.019.926h3.828v-.926h-4.847zm4.847 3.735h-3.118c-.031.278-.124.618-.247.926h3.365v-.926zm0-10.28v-.926h-4.013c-1.544 0-3.273.186-4.415.926h8.428zm-3.92 12.132c-.248.34-.587.649-1.05.926h4.97v-.926h-3.92zm-5.434-11.205c-.154.277-.278.586-.34.926h9.694v-.926h-9.354zm1.019 3.735c.401.247.895.525 1.513.802.092.062.216.093.308.155h6.483v-.926h-8.304v-.031zm-1.39-1.852c.032.34.155.648.34.926h9.385v-.926h-9.724z" transform="translate(-465 -220) translate(465 220) rotate(7 33.827 1731.148) rotate(-24 183.494 72.313)"/>
                    <path fill="#D3EBFC" d="M136.385 26.476c-.73-.793-.677-2.025.115-2.755.79-.725 2.016-.677 2.747.108.235.246 5.596 5.75 14.236.86.94-.527 2.127-.202 2.658.737.53.936.2 2.126-.736 2.657-3.224 1.824-6.222 2.51-8.864 2.51-4.836 0-8.482-2.297-10.156-4.117z" transform="translate(-465 -220) translate(465 220) rotate(7 33.827 1731.148) rotate(92 146.132 26.9)"/>
                </g>
                <g fill-rule="nonzero">
                    <path fill="#5C8FB4" d="M21.543 72.324c-1.515-.316-2.498-1.821-2.184-3.345.314-1.524 1.81-2.512 3.325-2.196l33.345 6.952c1.514.316 2.497 1.821 2.183 3.345-.314 1.524-1.81 2.512-3.324 2.196l-33.345-6.952z" transform="translate(-465 -220) translate(465 220) translate(75 13)"/>
                    <path fill="#BEDCF1" d="M58.176 76.966C80.673 24.328 53.756.222 53.756.222S19.532 11.58 19.381 68.877l38.795 8.089z" transform="translate(-465 -220) translate(465 220) translate(75 13)"/>
                    <path fill="#78A2C0" d="M59.339 40.415c-1.46 7.079-8.346 11.629-15.383 10.161-7.037-1.468-11.559-8.396-10.1-15.475 1.458-7.08 8.345-11.628 15.382-10.162 7.037 1.468 11.559 8.396 10.1 15.476" transform="translate(-465 -220) translate(465 220) translate(75 13)"/>
                    <path fill="#ACCEE6" d="M58.245 40.148c-1.395 6.773-7.985 11.127-14.718 9.722-6.733-1.403-11.06-8.032-9.664-14.806 1.396-6.773 7.985-11.125 14.718-9.722 6.732 1.404 11.06 8.033 9.664 14.806" transform="translate(-465 -220) translate(465 220) translate(75 13)"/>
                    <path fill="#E5EDF3" d="M49.09 28.145c-.125.612-.721 1.005-1.33.878-.608-.126-.999-.725-.873-1.337s.722-1.006 1.33-.879c.61.127 1 .726.874 1.338zM45.096 47.54c-.126.612-.722 1.005-1.33.878-.608-.127-1-.725-.873-1.337.126-.612.722-1.006 1.33-.88.609.127 1 .727.873 1.339zM56.96 39.88c-.126.612-.722 1.005-1.33.878-.609-.126-1-.725-.874-1.337s.722-1.006 1.33-.88c.61.129 1 .727.874 1.339zm-19.498-4.065c-.126.612-.722 1.005-1.33.878-.61-.127-1-.725-.874-1.337.126-.613.722-1.006 1.33-.88.609.127 1 .727.874 1.339zm4.033-6.133c-.126.612-.722 1.006-1.33.878-.609-.126-1-.725-.873-1.337.126-.612.721-1.006 1.33-.88.608.129.999.727.873 1.34zm13.978 2.915c-.126.612-.722 1.005-1.33.878-.609-.127-1-.725-.873-1.337.126-.612.722-1.006 1.33-.88.608.128.999.727.873 1.339zM38.709 43.202c-.126.612-.722 1.005-1.33.878-.608-.126-.999-.725-.873-1.337s.722-1.006 1.33-.879c.609.127 1 .726.873 1.338zm13.979 2.915c-.126.612-.722 1.005-1.33.878-.61-.127-1-.725-.874-1.337s.722-1.006 1.33-.88c.609.127 1 .727.874 1.339z" transform="translate(-465 -220) translate(465 220) translate(75 13)"/>
                    <path fill="#E1F3FC" d="M44.54 44.957c-4.036-.841-6.63-4.815-5.794-8.875.837-4.06 4.786-6.668 8.822-5.827 4.036.841 6.63 4.815 5.793 8.875-.836 4.06-4.786 6.669-8.822 5.827z" transform="translate(-465 -220) translate(465 220) translate(75 13)"/>
                    <path fill="#E9F6FF" d="M43.774 41.306l7.137-4.715c.156-.103.199-.313.097-.47-.103-.157-.312-.2-.468-.097l-7.137 4.714c-.156.103-.199.313-.097.47.103.157.312.2.468.098zM45.962 41.839l5.097-3.367c.156-.103.2-.314.097-.47-.102-.157-.311-.2-.467-.098l-5.098 3.367c-.156.103-.199.314-.097.47.103.157.312.2.468.098z" transform="translate(-465 -220) translate(465 220) translate(75 13)"/>
                    <path fill="#5C8FB4" d="M63.01 62.486s5.562-.228 7.975 8.135c2.413 8.363-2.403 28.394-2.403 28.394s-1.513 1.766-2.249-.238c-.736-2.003-8.575-21.899-8.575-21.899l5.252-14.392zM20.246 53.569s-5.013-2.432-10.531 4.276C4.195 64.555.702 84.862.702 84.862s.69 2.224 2.157.68C4.326 84 19.381 68.877 19.381 68.877l.865-15.307zM34.516 93.607c-1.454-.303-1.989-1.782-1.659-3.386l4.763-30.084c.33-1.603 2.782-2.46 4.237-2.156 1.453.303 3.364 2.07 3.033 3.673l-7.458 29.521c-.33 1.604-1.461 2.736-2.916 2.432M63.523 16.493C59.556 5.343 53.589 0 53.589 0S45.903 2.55 37.8 11.332c0 0 13.086 5.736 25.723 5.16" transform="translate(-465 -220) translate(465 220) translate(75 13)"/>
                    <path fill="url(#1saxa57v6b)" d="M50.635 78.73c-10.325 20.242-9.632 31.647-.436 37.661 7.207 4.713 19.531 4.74 36.096 1.307 5.558-1.152 11.423-2.66 17.809-4.523 5.27-1.537 18.772-5.832 19.942-6.17 3.248-.935 6.201-.994 9.644-.34 1.098.209 2.249.488 3.664.877.847.233 3.996 1.144 3.93 1.125 6.13 1.747 10.524 2.534 16.216 2.534v-3c-5.418 0-9.6-.748-15.521-2.437.08.023-3.087-.893-3.953-1.131-1.476-.406-2.69-.7-3.864-.923-3.813-.725-7.162-.658-10.817.395-1.214.35-14.721 4.646-19.95 6.172-6.327 1.846-12.128 3.337-17.612 4.474-15.929 3.301-27.737 3.275-34.172-.934-7.573-4.952-7.67-15.617 2.028-34.63l-3.004-.691v.234z" transform="translate(-465 -220) translate(465 220) translate(75 13)"/>
                </g>
                <g>
                    <g transform="translate(-465 -220) translate(465 220) translate(118.5 145)">
                        <mask id="nx5fl88ybd" fill="#fff">
                            <use xlink:href="#qi5tclodrc"/>
                        </mask>
                        <path fill="#E1F3FC" fill-rule="nonzero" d="M19.581 49.207c-5.407 0-9.792 4.396-9.792 9.793 0-5.397-4.384-9.793-9.789-9.793 5.405 0 9.79-4.398 9.79-9.794 0 5.396 4.384 9.794 9.791 9.794" mask="url(#nx5fl88ybd)"/>
                    </g>
                    <path fill="#E1F3FC" fill-rule="nonzero" d="M108.562 9.159c-4.864 0-8.81 3.955-8.81 8.814 0-4.859-3.95-8.814-8.813-8.814 4.863 0 8.812-3.959 8.812-8.814 0 4.855 3.947 8.814 8.811 8.814M87.875 37.416c-2.837 0-5.14 2.304-5.14 5.14 0-2.836-2.303-5.14-5.14-5.14 2.837 0 5.14-2.308 5.14-5.143 0 2.835 2.303 5.143 5.14 5.143" transform="translate(-465 -220) translate(465 220) translate(118.5 145)"/>
                    <g transform="translate(-465 -220) translate(465 220) translate(118.5 145)">
                        <mask id="xu0rt0zrxf" fill="#fff">
                            <use xlink:href="#nomauh5g9e"/>
                        </mask>
                        <path fill="#E1F3FC" fill-rule="nonzero" d="M122.391 30.07c-2.026 0-3.67 1.647-3.67 3.673 0-2.026-1.644-3.673-3.672-3.673 2.028 0 3.672-1.65 3.672-3.674 0 2.024 1.644 3.674 3.67 3.674" mask="url(#xu0rt0zrxf)"/>
                    </g>
                </g>
                <g>
                    <g transform="translate(-465 -220) translate(465 220) matrix(-1 0 0 1 483.264 229.836)">
                        <mask id="aim9ow3fuh" fill="#fff">
                            <use xlink:href="#zt9ha6hkrg"/>
                        </mask>
                        <path fill="#E1F3FC" fill-rule="nonzero" d="M21.646 54.502c-5.978 0-10.824 4.86-10.824 10.826 0-5.966-4.847-10.826-10.822-10.826 5.975 0 10.822-4.862 10.822-10.827 0 5.965 4.846 10.827 10.824 10.827" mask="url(#aim9ow3fuh)"/>
                    </g>
                    <path fill="#E1F3FC" fill-rule="nonzero" d="M120.011 10.23c-5.377 0-9.74 4.373-9.74 9.743 0-5.37-4.366-9.743-9.742-9.743 5.376 0 9.742-4.376 9.742-9.744 0 5.368 4.363 9.744 9.74 9.744M97.142 41.468c-3.136 0-5.681 2.547-5.681 5.682 0-3.135-2.547-5.682-5.683-5.682 3.136 0 5.683-2.552 5.683-5.686 0 3.134 2.545 5.686 5.681 5.686" transform="translate(-465 -220) translate(465 220) matrix(-1 0 0 1 483.264 229.836)"/>
                    <g transform="translate(-465 -220) translate(465 220) matrix(-1 0 0 1 483.264 229.836)">
                        <mask id="o6cqfqa8nj" fill="#fff">
                            <use xlink:href="#yj9jd7wgpi"/>
                        </mask>
                        <path fill="#E1F3FC" fill-rule="nonzero" d="M135.299 33.346c-2.24 0-4.058 1.821-4.058 4.061 0-2.24-1.817-4.06-4.06-4.06 2.243 0 4.06-1.825 4.06-4.061 0 2.236 1.817 4.06 4.058 4.06" mask="url(#o6cqfqa8nj)"/>
                    </g>
                </g>
                <g>
                    <g transform="translate(-465 -220) translate(465 220) translate(193.5 16)">
                        <mask id="p0af9r3ebl" fill="#fff">
                            <use xlink:href="#fqbvuy298k"/>
                        </mask>
                        <path fill="#E1F3FC" fill-rule="nonzero" d="M19.581 49.207c-5.407 0-9.792 4.396-9.792 9.793 0-5.397-4.384-9.793-9.789-9.793 5.405 0 9.79-4.398 9.79-9.794 0 5.396 4.384 9.794 9.791 9.794" mask="url(#p0af9r3ebl)"/>
                    </g>
                    <path fill="#E1F3FC" fill-rule="nonzero" d="M108.562 9.159c-4.864 0-8.81 3.955-8.81 8.814 0-4.859-3.95-8.814-8.813-8.814 4.863 0 8.812-3.959 8.812-8.814 0 4.855 3.947 8.814 8.811 8.814M87.875 37.416c-2.837 0-5.14 2.304-5.14 5.14 0-2.836-2.303-5.14-5.14-5.14 2.837 0 5.14-2.308 5.14-5.143 0 2.835 2.303 5.143 5.14 5.143" transform="translate(-465 -220) translate(465 220) translate(193.5 16)"/>
                    <g transform="translate(-465 -220) translate(465 220) translate(193.5 16)">
                        <mask id="038vkt1ecn" fill="#fff">
                            <use xlink:href="#ldvsexe9xm"/>
                        </mask>
                        <path fill="#E1F3FC" fill-rule="nonzero" d="M122.391 30.07c-2.026 0-3.67 1.647-3.67 3.673 0-2.026-1.644-3.673-3.672-3.673 2.028 0 3.672-1.65 3.672-3.674 0 2.024 1.644 3.674 3.67 3.674" mask="url(#038vkt1ecn)"/>
                    </g>
                </g>
                <g>
                    <g transform="translate(-465 -220) translate(465 220) translate(21 10.5)">
                        <mask id="45fc9vhtop" fill="#fff">
                            <use xlink:href="#cms6x4xtjo"/>
                        </mask>
                        <path fill="#E1F3FC" fill-rule="nonzero" d="M13.134 33.89c-3.627 0-6.568 2.967-6.568 6.61 0-3.643-2.94-6.61-6.566-6.61 3.625 0 6.566-2.969 6.566-6.61 0 3.641 2.94 6.61 6.568 6.61" mask="url(#45fc9vhtop)"/>
                    </g>
                    <path fill="#E1F3FC" fill-rule="nonzero" d="M73.5 7.5c-3.312 0-6 2.693-6 6 0-3.307-2.689-6-6-6 3.311 0 6-2.695 6-6 0 3.305 2.688 6 6 6M60 26.251c-2.07 0-3.75 1.68-3.75 3.749 0-2.069-1.68-3.749-3.75-3.749 2.07 0 3.75-1.683 3.75-3.751 0 2.068 1.68 3.751 3.75 3.751" transform="translate(-465 -220) translate(465 220) translate(21 10.5)"/>
                    <g transform="translate(-465 -220) translate(465 220) translate(21 10.5)">
                        <mask id="musuxxgf9r" fill="#fff">
                            <use xlink:href="#lk5jwdkcrq"/>
                        </mask>
                        <path fill="#E1F3FC" fill-rule="nonzero" d="M82.092 20.972c-1.36 0-2.462 1.112-2.462 2.48 0-1.368-1.103-2.48-2.463-2.48 1.36 0 2.463-1.114 2.463-2.48 0 1.366 1.102 2.48 2.462 2.48" mask="url(#musuxxgf9r)"/>
                    </g>
                </g>
                <g>
                    <g transform="translate(-465 -220) translate(465 220) translate(13.5 244)">
                        <mask id="d9qxre1est" fill="#fff">
                            <use xlink:href="#viuaegm16s"/>
                        </mask>
                        <path fill="#E1F3FC" fill-rule="nonzero" d="M19.581 49.207c-5.407 0-9.792 4.396-9.792 9.793 0-5.397-4.384-9.793-9.789-9.793 5.405 0 9.79-4.398 9.79-9.794 0 5.396 4.384 9.794 9.791 9.794" mask="url(#d9qxre1est)"/>
                    </g>
                    <path fill="#E1F3FC" fill-rule="nonzero" d="M108.562 9.159c-4.864 0-8.81 3.955-8.81 8.814 0-4.859-3.95-8.814-8.813-8.814 4.863 0 8.812-3.959 8.812-8.814 0 4.855 3.947 8.814 8.811 8.814M87.875 37.416c-2.837 0-5.14 2.304-5.14 5.14 0-2.836-2.303-5.14-5.14-5.14 2.837 0 5.14-2.308 5.14-5.143 0 2.835 2.303 5.143 5.14 5.143" transform="translate(-465 -220) translate(465 220) translate(13.5 244)"/>
                    <g transform="translate(-465 -220) translate(465 220) translate(13.5 244)">
                        <mask id="xlo9fq1x7v" fill="#fff">
                            <use xlink:href="#o9arxvuufu"/>
                        </mask>
                        <path fill="#E1F3FC" fill-rule="nonzero" d="M122.391 30.07c-2.026 0-3.67 1.647-3.67 3.673 0-2.026-1.644-3.673-3.672-3.673 2.028 0 3.672-1.65 3.672-3.674 0 2.024 1.644 3.674 3.67 3.674" mask="url(#xlo9fq1x7v)"/>
                    </g>
                </g>
                <path fill="#FFF" fill-opacity="0" fill-rule="nonzero" d="M0 0H510V333H0z" transform="translate(-465 -220) translate(465 220)"/>
            </g>
        </g>
    </g>
</svg>
