<?xml version="1.0" encoding="UTF-8"?><svg id="Layer_1" xmlns="http://www.w3.org/2000/svg" viewBox="0 0 73.03 73.03"><defs><style>.cls-1{fill:#fff;stroke:#000;stroke-miterlimit:10;}</style></defs><rect class="cls-1" x="1.16" y="1.16" width="70.71" height="70.71" rx="15.54" ry="15.54"/><g><path d="M5.82,36.52c0-8.84,6.78-15.04,16.03-15.04,5.63,0,10.07,2.06,12.91,5.75l-6.12,5.47c-1.69-2.14-3.7-3.37-6.29-3.37-4.03,0-6.74,2.8-6.74,7.19s2.71,7.19,6.74,7.19c2.59,0,4.6-1.23,6.29-3.37l6.12,5.47c-2.84,3.7-7.28,5.75-12.91,5.75-9.25,0-16.03-6.21-16.03-15.04Z"/><g><path d="M44.31,39.48c.16,0,.37-.1,.37-.1,.23-.12,.34-.24,.59-.67,.32-.55,.44-.73,.75-.89,.14-.07,.22-.11,.44-.11s.41,.07,.56,.24,.3,.51,.3,.51c0,0,1.18-7.77,1.25-8.21s.25-.66,.54-.66,.51,.12,.56,.7,.9,9.85,.9,9.85c0,0,.13-.71,.19-1.03s.32-.58,.67-.58,.44,.19,.44,.19c0,0,.64-2.15,.77-2.56s.16-.62,.39-.73c.25-.12,.58-.04,.7,.18,.06,.1,1.15,3.66,1.16,3.68,0,.03,.04,.02,.14-.03,.32-.18,.61-.17,1,.03,.12,.06,.2,.1,.33,.17,.14,.07,.19,.1,.42,.1s5.48,.01,5.48,.01l-7.62-17.43h-9.54l-7.58,17.33s6.63,.02,6.79,.02Z"/><path d="M62.73,40.67s-5.93-.03-6.1-.03-.27-.02-.48-.09c-.13-.04-.31-.12-.4-.17-.09-.05-.16-.08-.17-.08,0,0-.05,.08-.1,.17-.1,.18-.23,.34-.38,.41-.14,.07-.36,.1-.57,0-.22-.1-.34-.28-.42-.48-.09-.25-.84-2.51-.84-2.51,0,0-.53,1.75-.59,1.95s-.17,.4-.53,.4-.48-.23-.48-.23c0,0-.66,4.63-.7,4.94s-.26,.43-.54,.43-.45-.2-.48-.55c-.03-.25-.97-9.93-.97-9.93,0,0-.77,5.09-.82,5.39s-.26,.47-.53,.47c-.3,0-.45-.09-.58-.32s-.7-1.4-.7-1.4l-.19,.32c-.35,.58-.79,.97-1.31,1.14-.35,.11-.43,.1-.78,.1h-7.06l-4.5,10.3h9.87l1.93-5.01h10.93l1.93,5.01h10.03l-4.47-10.23Z"/></g></g></svg>